<?xml version="1.0" encoding="utf-8"?>
<!-- Generator: Adobe Illustrator 22.0.1, SVG Export Plug-In . SVG Version: 6.00 Build 0)  -->
<svg version="1.1" id="Layer_1" xmlns="http://www.w3.org/2000/svg" xmlns:xlink="http://www.w3.org/1999/xlink" x="0px" y="0px"
	 viewBox="0 0 488.5 467" style="enable-background:new 0 0 488.5 467;" xml:space="preserve">
<g>
	<g>
		<path d="M296.5,1c29,0,47,19.5,47,50.8c0,28.3-16.1,53.8-30.4,76.4c-2.1,3.3-4,6.4-5.9,9.5l-61.4,96l-2.5,4l3.9-2.6l96-63.3
			c19.7-13.2,48-30.1,70.7-36.3c9.7-2.6,18.8-4,27.1-4c28.1,0,45.1,15.1,46.4,41.4c0.9,18-5.1,34.3-17.7,48.5
			c-11.5,12.9-28.6,24-50.7,33.1c-19,7.6-47.6,7.6-70.6,7.6l-96-3.8l-3-0.1l2.4,1.9l67.2,53.7c15.6,12.1,29.5,28.6,40,47.6
			c16.1,32.2,1.6,69.4-36.1,92.7c-12.6,8-25.1,12-37.1,12c-19.7,0-36.7-11-47.9-30.8c-7.6-13.6-11.4-35.4-11.4-64.8V268.7v-4
			l-1.9,3.6l-53.7,101.7c-17,31.2-32.5,53.1-45.8,65C100.5,455.5,78.7,466,60.3,466c-11.3,0-21.3-4-29.9-11.9
			c-12.6-11.7-17.5-26-14.6-42.5c2.8-15.4,12.2-32.3,28.1-50.1C60.5,343,86,328.1,108.6,315l2.2-1.3l96-53.7l3.6-2l-4.1,0.2
			l-101.7,3.8c-23.3,0-49.7,0-66.8-7.6C19.6,246.7,8.1,236,3.3,222.4c-4.9-14-2.2-30.6,8-49.2c15.2-26.2,41.8-41.9,71.2-41.9
			c8.6,0,17.2,1.3,25.5,4c17.6,5.9,34.9,21.6,49.5,36.2l63.3,65.3l2.1,2.1l-0.3-2.9l-11.5-97.9l0,0l0,0c-1.9-9.5-1.9-22.7-1.9-34.3
			c0-30.5,8.5-56.4,24.5-74.9C249.4,10.6,271.1,1,296.5,1 M296.5,0c-51.8,0-88.3,40.3-88.3,103.6c0,11.5,0,25,1.9,34.5l11.5,97.9
			l-63.3-65.3c-15.4-15.4-32.6-30.7-49.9-36.5c-8.5-2.7-17.2-4-25.8-4c-28.4,0-55.9,14.4-72.1,42.4c-21.1,38.4-9.6,67.2,26.9,82.5
			c17.3,7.7,44.1,7.7,67.2,7.7l101.7-3.8l-96,53.7c-23,13.4-49.9,28.8-67.2,48c-30.7,34.5-40.3,69.1-13.4,94
			c9,8.3,19.4,12.2,30.6,12.2c19.7,0,42.2-11.8,65.4-31.4c17.3-15.4,34.5-44.1,46.1-65.3l53.7-101.7v101.7c0,21.1,1.9,48,11.5,65.3
			c11,19.6,28.3,31.4,48.8,31.4c11.7,0,24.4-3.8,37.6-12.2c40.3-25,51.8-63.3,36.5-94c-9.6-17.3-23-34.5-40.3-48l-67.2-53.7l96,3.8
			c23,0,51.8,0,71-7.7c42.2-17.3,71-44.1,69.1-82.5c-1.5-28-19.9-42.4-47.4-42.4c-8.4,0-17.6,1.3-27.4,4c-21.1,5.8-48,21.1-71,36.5
			l-96,63.3l61.4-96c15.4-25,36.5-53.7,36.5-86.4C344.5,21.1,327.2,0,296.5,0L296.5,0z"/>
	</g>
</g>
</svg>
