<?xml version="1.0" encoding="utf-8"?>
<!-- Generator: Adobe Illustrator 22.0.1, SVG Export Plug-In . SVG Version: 6.00 Build 0)  -->
<svg version="1.1" id="Livello_1" xmlns="http://www.w3.org/2000/svg" xmlns:xlink="http://www.w3.org/1999/xlink" x="0px" y="0px"
	 viewBox="0 0 167.7 152.6" style="enable-background:new 0 0 167.7 152.6;" xml:space="preserve">
<style type="text/css">
	.st0{clip-path:url(#SVGID_2_);fill:#1D1D1B;}
</style>
<g>
	<defs>
		<rect id="SVGID_1_" width="167.7" height="152.6"/>
	</defs>
	<clipPath id="SVGID_2_">
		<use xlink:href="#SVGID_1_"  style="overflow:visible;"/>
	</clipPath>
	<path class="st0" d="M91.8,151.9h4.8v-15.7c0-5.9,2.9-8.5,6.4-8.5c3.5,0,4.8,2.4,4.8,5.9v18.3h4.8v-15.7c0-5.9,2.9-8.5,6.4-8.5
		c3.5,0,4.8,2.4,4.8,5.9v18.3h4.8v-19.7c0-5.2-3.2-8.5-8.4-8.5c-2.6,0-6.1,0.8-8.3,4.6c-1.3-2.9-4-4.6-7.7-4.6
		c-2.6,0-6.1,1.3-7.6,4.6v-3.8h-4.8V151.9z M82.7,138c0,6.9-1.9,10.8-7,10.8c-5.1,0-7-4-7-10.8s1.9-10.7,7-10.7
		C80.8,127.3,82.7,131.3,82.7,138 M64.1,138c0,4.3,0.6,8,2.4,10.5c2,2.9,5.5,4.1,9.2,4.1c3.7,0,7.3-1.2,9.2-4.1
		c1.7-2.5,2.4-5.9,2.4-10.5c0-4.6-0.6-7.9-2.4-10.4c-2-2.9-5.6-4.1-9.2-4.1c-3.7,0-7.3,1.2-9.2,4.1C64.7,130.1,64.1,133.8,64.1,138
		 M56.2,138c0,6.9-1.9,10.8-7,10.8c-5.1,0-7-4-7-10.8s1.9-10.7,7-10.7C54.3,127.3,56.2,131.3,56.2,138 M37.6,138
		c0,4.3,0.6,8,2.4,10.5c2,2.9,5.5,4.1,9.2,4.1c3.7,0,7.3-1.2,9.2-4.1c1.7-2.5,2.4-5.9,2.4-10.5c0-4.6-0.6-7.9-2.4-10.4
		c-2-2.9-5.6-4.1-9.2-4.1c-3.7,0-7.3,1.2-9.2,4.1C38.2,130.1,37.6,133.8,37.6,138 M28.6,109.5v42.4h4.7l-0.1-42.4H28.6z M13.6,149.2
		c-4.8,0-7.6-3.1-7.6-11.1c0-7.8,2.5-11,7.2-10.9c4.6,0.1,6,3.6,6,10.9C19.3,142.7,19,149.2,13.6,149.2 M24,138.1
		c0-12.5-5.3-14.5-9.6-14.5c-3.6,0-6,1.4-7.9,4.1v-18.2H1.8v42.4h4.8v-3.2c1.6,2.1,4,4,7.3,4C20.3,152.6,24,148.9,24,138.1"/>
	<path class="st0" d="M147.3,97.6c5.3,0,10.7-2.3,10.7-8.2c0-4.5-3.2-7-6.9-8c-3.2-0.9-6-1.2-7.9-2.1c-1.3-0.7-2.1-1.6-2.1-3.4
		c0-2.4,2.2-3.5,4.4-3.7c3-0.3,6.4,1.1,7.1,4.3l4.1-1.3c-0.8-3.7-4.1-6.7-10.4-6.7c-6.9,0-9.8,3.8-9.8,7.5c0,3.5,1.8,5.7,4.8,6.9
		c2.7,1.1,6.2,1.4,8.6,2.3c2,0.7,3.4,1.8,3.4,4.1c0,1.6-0.9,4.3-6.4,4.3c-5.2,0-6.5-2.6-7-5.5l-4.1,1.3
		C137,95.2,141.6,97.6,147.3,97.6 M117.7,96.9h4.8V81.2c0-4.3,1-8.7,4.3-8.7c1.5,0,2.4,1.2,2.4,3.6v2.1l4.3-0.3v-2.4
		c0-3.7-1-6.9-4.6-6.9c-2.8,0-5,1.7-6.4,4.6v-3.8h-4.8V96.9z M96.1,80.5c0-5.5,1.6-8.5,6.2-8.5c4.6,0,6.5,3,6.5,8.5H96.1z
		 M91.5,83.2c0,8.8,2.5,14.5,11.4,14.5c3.2,0,5.9-1.2,7.7-3.1c1.5-1.5,2.4-3.4,2.8-5.6l-3.8-0.9c-0.2,1.3-0.8,2.8-1.9,4
		c-1,1.2-2.5,1.8-4.7,1.8c-4.8,0-6.7-3.6-6.8-9.8h17.4c0-4.3-0.2-8.5-2.3-11.4c-2-2.9-5.2-4.1-8.9-4.1c-4.2,0-6.9,1.7-8.5,4.1
		C92.1,75.1,91.5,78.5,91.5,83.2 M51.4,69.4l8.4,27.5h4.7l6.2-20.5L77,96.9h4.7L90,69.4h-4.2L81.6,83c-0.7,2.4-1.5,4.8-2.2,7.2
		c-0.7-2.4-1.5-4.8-2.2-7.2L73,69.4h-4.5L64.4,83c-0.7,2.4-1.5,4.8-2.2,7.2c-0.7-2.4-1.5-4.8-2.2-7.2l-4.2-13.7H51.4z M45.3,83
		c0,6.9-1.9,10.8-7,10.8c-5.1,0-7-4-7-10.8s1.9-10.7,7-10.7C43.4,72.3,45.3,76.3,45.3,83 M26.7,83c0,4.3,0.6,8,2.4,10.5
		c2,2.9,5.5,4.1,9.2,4.1c3.7,0,7.3-1.2,9.2-4.1c1.7-2.5,2.4-5.9,2.4-10.5c0-4.6-0.6-7.9-2.4-10.4c-2-2.9-5.6-4.1-9.2-4.1
		c-3.7,0-7.3,1.2-9.2,4.1C27.3,75.1,26.7,78.8,26.7,83 M17.6,54.5v42.4h4.7l-0.1-42.4H17.6z M0,72.8h3.6v24.1h4.8V72.8h5.9v-3.4H8.4
		v-8.1c0-2.8,0.2-3.1,2.9-3.1h3v-3.6H8.9c-3.6,0-5.3,2.3-5.3,5.6v9.3H0V72.8z"/>
	<path class="st0" d="M167.7,6.8c-0.1-1-0.9-1.4-2.1-1.1c-0.6,0.2-1.4,0.6-2,1l-2.8,1.8l1.8-2.8c0.4-0.7,1-1.5,1-2.5
		c0-0.9-0.5-1.5-1.4-1.5c-1.5,0-2.5,1.2-2.5,3c0,0.3,0,0.7,0.1,1l0.3,2.8l-1.8-1.9c-0.4-0.4-0.9-0.9-1.4-1c-1-0.3-2.2,0.1-2.8,1.1
		c-0.6,1.1-0.3,1.9,0.8,2.4c0.5,0.2,1.3,0.2,1.9,0.2l2.9-0.1l-2.8,1.5c-0.7,0.4-1.4,0.8-1.9,1.4c-0.9,1-1.2,2-0.4,2.7
		c0.7,0.7,1.7,0.3,2.8-0.5c0.5-0.4,1-1.3,1.3-1.9l1.5-2.9v2.9c0,0.6,0.1,1.4,0.3,1.9c0.5,0.9,1.4,1.2,2.5,0.5c1.2-0.7,1.5-1.8,1-2.7
		c-0.3-0.5-0.7-1-1.2-1.4l-1.9-1.5l2.8,0.1c0.7,0,1.5,0,2-0.2C166.9,8.7,167.7,7.9,167.7,6.8 M139.6,16.2c1.7,0,3.1,1,3.1,3.1
		c0,4.3-6.4,7.1-11.8,7.8C132.5,21.7,136.5,17.5,139.6,16.2 M147.9,17.8c0-2.6-2.3-3.5-5-3.5c-8.6,0-17.5,11.1-17.5,20.5
		c0,6.2,4.1,7.8,7.3,7.8c5.4,0,9.1-4.3,11.8-8.1l-1.2-0.8c-2.8,3.4-5.2,4.6-7.9,4.6c-3.1,0-5.2-1.6-5.2-6.3c0-1.3,0.2-2.5,0.4-3.6
		C140.5,27.2,147.9,22.4,147.9,17.8 M124.9,14.2c-3.7,0-8.3,7.5-14.3,19.3l-0.6-0.3c2.8-4.9,3.2-7.5,4-10.4l2-7.5l-1.1-1.2l-8.2,2
		l-0.3,1.3h1.5c2.2,0,2.9,0.7,2.4,2.7l-5.8,21.6h4.8l2.2-8.4c5.2-9.4,8.9-13,10.9-13c0.6,0,1.2,0.1,1.8,0.4h1l1.7-6
		C126.5,14.4,125.7,14.2,124.9,14.2 M94.8,16.2c1.7,0,3.1,1,3.1,3.1c0,4.3-6.4,7.1-11.8,7.8C87.7,21.7,91.7,17.5,94.8,16.2
		 M103.1,17.8c0-2.6-2.3-3.5-5-3.5c-8.6,0-17.5,11.1-17.5,20.5c0,6.2,4.1,7.8,7.3,7.8c5.4,0,9.1-4.3,11.8-8.1l-1.2-0.8
		c-2.8,3.4-5.2,4.6-7.9,4.6c-3.1,0-5.2-1.6-5.2-6.3c0-1.3,0.2-2.5,0.4-3.6C95.7,27.2,103.1,22.4,103.1,17.8 M68.2,42.5
		c2.3,0,5.9-2,9.7-8.1l-1.3-0.8c-2.6,3.7-4.4,4.7-5.3,4.7c-0.8,0-1.2-0.4-1.2-1.2c0-0.9,1.3-5.1,2.6-8.9c1.3-3.8,2.9-8.2,2.9-10.5
		c0-2.5-1.6-3.5-3.8-3.5c-4,0-8.1,4.5-15.3,16.8l-0.6-0.3c1.2-1.5,3.1-5.3,4.1-9l5.6-20.5L64.5,0l-8.6,2l-0.3,1.4h1.1
		c2.8,0,3.5,0.5,3,2.5l-9.6,36h4.7l2.9-10.6c3.6-6,8.7-12.8,11.9-12.8c0.9,0,1.4,0.4,1.4,1.4c0,1.1-1.2,4.6-2.4,8
		c-1.6,4.7-3.2,8.9-3.2,11.4C65.2,41.6,66.7,42.5,68.2,42.5 M41.1,3.4l-0.5,1.4c2.9,0.2,4.2,0.5,4.2,2.1c0,1-0.7,2.2-1.4,3.6
		L32.5,30.7c-1.3,2.5-1.8,3.4-2.3,5.2h-0.3c0.3-1.8,0.4-2.7,0.2-5.2L28.8,9c-0.2-3.4,0.9-4,4.8-4.2l0.5-1.4H19.7l-0.4,1.4
		c3,0.2,4.2,0.7,4.3,3.6l0.2,3.2l-11,19.3c-1.1,2-1.7,3.1-2.4,5.2h-0.2c0.4-2,0.4-3.1,0.3-5L9.4,10C9.1,5.4,9.7,5,13.8,4.8l0.4-1.4
		H0.9L0.5,4.7c2.3,0.1,3.3,1.2,3.6,4.7l2.4,32.7h2.8l12.9-23.6c1.9-3.5,2.4-4.6,2.7-5.4l0.3,0.1c-0.4,1.6-0.5,4-0.4,6.1l1.5,22.9
		h2.8L46.5,9.5c1.9-3.6,3.3-4.4,6.7-4.7l0.4-1.4H41.1z"/>
</g>
</svg>
